<?xml version="1.0" encoding="utf-8"?>
<!-- Generator: Adobe Illustrator 26.4.0, SVG Export Plug-In . SVG Version: 6.00 Build 0)  -->
<svg version="1.1" id="Layer_1" xmlns="http://www.w3.org/2000/svg" xmlns:xlink="http://www.w3.org/1999/xlink" x="0px" y="0px"
	 viewBox="0 0 340 20.8" style="enable-background:new 0 0 340 20.8;" xml:space="preserve">
<style type="text/css">
	.st0{fill:#FFCF02;stroke:#000000;stroke-miterlimit:10;}
</style>
<g>
	<path class="st0" d="M175,17.6h-10c-1.9,0-3.5-1.6-3.5-3.5v-7c0-1.9,1.6-3.5,3.5-3.5h10c1.9,0,3.5,1.6,3.5,3.5v7
		C178.5,16,176.9,17.6,175,17.6z"/>
	<path class="st0" d="M174,3.4h-8V1.9c0-0.6,0.5-1.1,1.1-1.1h5.7c0.6,0,1.2,0.5,1.2,1.1L174,3.4C174,3.4,174,3.4,174,3.4z"/>
	<path class="st0" d="M175,17.7h-10v1.1c0,0.7,0.5,1.2,1.2,1.2h7.6c0.7,0,1.2-0.5,1.2-1.2L175,17.7L175,17.7z"/>
	<path class="st0" d="M167,12.1c0,0,3.1,3,5.5,0"/>
	<g>
		<circle class="st0" cx="167.5" cy="9.1" r="0.5"/>
		<circle class="st0" cx="172.5" cy="9.1" r="0.5"/>
	</g>
</g>
</svg>
